<svg width="1901" height="405" viewBox="0 0 1901 405" fill="none" xmlns="http://www.w3.org/2000/svg">
<path d="M0 202.5L79.2083 209.208C158.417 216.422 316.833 229.078 475.25 249.708C633.667 269.578 792.083 297.422 950.5 269.958C1108.92 243 1267.33 162 1425.75 135.042C1584.17 107.578 1742.58 135.422 1821.79 148.458L1901 162V405H1821.79C1742.58 405 1584.17 405 1425.75 405C1267.33 405 1108.92 405 950.5 405C792.083 405 633.667 405 475.25 405C316.833 405 158.417 405 79.2083 405H0V202.5Z" fill="#FDA100"/>
</svg>
